<svg width="33" height="29" viewBox="0 0 33 29" fill="none" xmlns="http://www.w3.org/2000/svg">
<path d="M9.8599 2.26781L15.3599 0.205997C16.0932 -0.0686657 16.9068 -0.0686657 17.6401 0.205997L23.1401 2.26781C24.3833 2.73512 25.2083 3.91556 25.2083 5.23365V11.5879C25.2828 11.6105 25.3573 11.6332 25.4318 11.6105L30.9318 13.7233C32.175 14.1878 33 15.3716 33 16.6858V23.4376C33 24.6951 32.2495 25.8336 31.0807 26.3378L25.5807 28.7281C24.7615 29.0906 23.8219 29.0906 23.0026 28.7281L16.5 25.9073L9.9974 28.7281C9.17813 29.0906 8.23854 29.0906 7.41927 28.7281L1.91698 26.3378C0.75224 25.8336 0 24.6951 0 23.4376V16.6858C0 15.3716 0.824427 14.1878 2.07109 13.7233L7.56823 11.6105C7.64271 11.6332 7.71719 11.6105 7.79167 11.5879V5.23365C7.79167 3.91556 8.61667 2.73512 9.8599 2.26781ZM16.6604 2.74814C16.5573 2.70906 16.3911 2.70906 16.3396 2.74814L11.8479 4.43101L16.4484 6.19545L21.1521 4.43101L16.6604 2.74814ZM22.4583 11.9221V6.84685L17.7375 8.63677V13.6893L22.4583 11.9221ZM8.86875 14.2048C8.76562 14.1651 8.59948 14.1651 8.54792 14.2048L4.05682 15.8871L8.70833 17.6487L13.3604 15.8871L8.86875 14.2048ZM9.94583 25.7827L14.6667 23.7322V18.3001L9.94583 20.09V25.7827ZM19.6396 15.8871L24.2917 17.6487L28.9438 15.8871L24.4521 14.2048C24.349 14.1651 24.1828 14.1651 24.1313 14.2048L19.6396 15.8871ZM30.25 23.4376V18.3001L25.5292 20.09V25.7827L29.975 23.8511C30.1411 23.7775 30.25 23.6189 30.25 23.4376Z" fill="white"/>
</svg>
