<svg width="31" height="23" viewBox="0 0 31 23" fill="none" xmlns="http://www.w3.org/2000/svg">
<path d="M27.5556 0H3.44444C1.54193 0 0 1.47087 0 3.28571V19.7143C0 21.5291 1.54193 23 3.44444 23H27.5556C29.4581 23 31 21.5291 31 19.7143V3.28571C31 1.47087 29.4554 0 27.5556 0ZM9.47222 4.92857C11.3747 4.92857 12.9167 6.39944 12.9167 8.21429C12.9167 10.0291 11.3747 11.5 9.47222 11.5C7.56971 11.5 6.02778 10.0291 6.02778 8.21429C6.02778 6.39944 7.5724 4.92857 9.47222 4.92857ZM14.6389 18.0714H4.30556C3.82979 18.0714 3.44444 17.7018 3.44444 17.25C3.44444 14.9808 5.37226 13.1429 7.75 13.1429H11.1944C13.5722 13.1429 15.5 14.9818 15.5 17.25C15.5 17.7018 15.1125 18.0714 14.6389 18.0714ZM26.6944 14.7857H19.8056C19.3319 14.7857 18.9444 14.4161 18.9444 13.9643C18.9444 13.5125 19.3319 13.1429 19.8056 13.1429H26.6944C27.1681 13.1429 27.5556 13.5125 27.5556 13.9643C27.5556 14.4161 27.1681 14.7857 26.6944 14.7857ZM26.6944 11.5H19.8056C19.3319 11.5 18.9444 11.1304 18.9444 10.6786C18.9444 10.2268 19.3319 9.85714 19.8056 9.85714H26.6944C27.1681 9.85714 27.5556 10.2268 27.5556 10.6786C27.5556 11.1304 27.1681 11.5 26.6944 11.5ZM26.6944 8.21429H19.8056C19.3319 8.21429 18.9444 7.84464 18.9444 7.39286C18.9444 6.94107 19.3319 6.57143 19.8056 6.57143H26.6944C27.1681 6.57143 27.5556 6.94107 27.5556 7.39286C27.5556 7.84464 27.1681 8.21429 26.6944 8.21429Z" fill="white"/>
</svg>
