<svg width="22" height="30" viewBox="0 0 22 30" fill="none" xmlns="http://www.w3.org/2000/svg">
<path d="M0.800365 0.128676C1.28849 -0.100785 1.86198 -0.0188327 2.2699 0.338566L4.58333 2.36668L6.89792 0.338566C7.41354 -0.112855 8.16979 -0.112855 8.68542 0.338566L11 2.36668L13.3146 0.338566C13.8302 -0.112855 14.5865 -0.112855 15.1021 0.338566L17.4167 2.36668L19.7313 0.338566C20.138 -0.0188327 20.7109 -0.100785 21.1979 0.128676C21.6849 0.358195 22 0.857255 22 1.4063V28.5947C22 29.1455 21.6849 29.6435 21.1979 29.8721C20.7109 30.1006 20.138 30.0186 19.7313 29.6611L17.4167 27.6337L15.1021 29.6611C14.5865 30.1123 13.8302 30.1123 13.3146 29.6611L11 27.6337L8.68542 29.6611C8.16979 30.1123 7.41354 30.1123 6.89792 29.6611L4.58333 27.6337L2.2699 29.6611C1.86198 30.0186 1.28849 30.1006 0.800365 29.8721C0.312583 29.6435 0 29.1455 0 28.5947V1.4063C0 0.857255 0.312583 0.358137 0.800365 0.128676ZM5.5 8.43778C4.99354 8.43778 4.58333 8.85967 4.58333 9.37531C4.58333 9.89095 4.99354 10.3128 5.5 10.3128H16.5C17.0042 10.3128 17.4167 9.89095 17.4167 9.37531C17.4167 8.85967 17.0042 8.43778 16.5 8.43778H5.5ZM5.5 21.5632H16.5C17.0042 21.5632 17.4167 21.1413 17.4167 20.6257C17.4167 20.11 17.0042 19.6881 16.5 19.6881H5.5C4.99354 19.6881 4.58333 20.11 4.58333 20.6257C4.58333 21.1413 4.99354 21.5632 5.5 21.5632ZM5.5 14.063C4.99354 14.063 4.58333 14.4848 4.58333 15.0005C4.58333 15.5161 4.99354 15.938 5.5 15.938H16.5C17.0042 15.938 17.4167 15.5161 17.4167 15.0005C17.4167 14.4848 17.0042 14.063 16.5 14.063H5.5Z" fill="white"/>
</svg>
