<svg width="30" height="27" viewBox="0 0 30 27" fill="none" xmlns="http://www.w3.org/2000/svg">
<path d="M26.25 0C27.2871 0 28.125 0.839648 28.125 1.875C28.125 2.91035 27.2871 3.75 26.25 3.75H4.6875C4.16953 3.75 3.75 4.17188 3.75 4.6875C3.75 5.20312 4.16953 5.625 4.6875 5.625H26.25C28.3184 5.625 30 7.30664 30 9.375V22.5C30 24.5684 28.3184 26.25 26.25 26.25H3.75C1.67871 26.25 0 24.5684 0 22.5V3.75C0 1.67871 1.67871 0 3.75 0H26.25ZM24.375 17.8125C25.4121 17.8125 26.25 16.9746 26.25 15.9375C26.25 14.9004 25.4121 14.0625 24.375 14.0625C23.3379 14.0625 22.5 14.9004 22.5 15.9375C22.5 16.9746 23.3379 17.8125 24.375 17.8125Z" fill="white"/>
</svg>
