<svg width="32" height="28" viewBox="0 0 32 28" fill="none" xmlns="http://www.w3.org/2000/svg">
<path d="M8 25.9438V11.9438C8 10.8394 7.10437 10 6 10H2C0.895625 10 0 10.8956 0 11.9438V25.8875C0 26.9919 0.895625 27.8312 2 27.8312H6C7.10625 27.9437 8 27.1 8 25.9438ZM32 12.0063C32 10.35 30.6575 9.0075 29 9.0075H19.8438C21.2669 6.63812 22.0012 3.9525 22.0012 3.00625C22 1.5325 20.8438 0 18.9062 0C14.9606 0 17.2588 4.75938 12.1438 8.85L11.125 9.6625C10.3875 10.2563 10.0125 11.125 10.0063 12C10.0048 12.0015 10.0063 12 10.0063 12L10 22C10 22.9438 10.4446 23.8331 11.2 24.3994L13.3337 25.9988C15.0625 27.3 17.1687 28 19.3312 28H23C24.6575 28 26 26.6581 26 25.0012C26 24.7741 25.97 24.5548 25.9221 24.3419C27.125 23.95 28 22.8375 28 21.5C28 20.9282 27.8314 20.3994 27.5538 19.945C28.9438 19.6875 30 18.4688 30 17.0063C30 16.225 29.6942 15.52 29.205 14.9862C30.7625 14.8813 32 13.5938 32 12.0063Z" fill="white"/>
</svg>
